<svg width="14" height="14" viewBox="0 0 14 14" fill="none" xmlns="http://www.w3.org/2000/svg">
<g clip-path="url(#clip0_1222_1181)">
<path fill-rule="evenodd" clip-rule="evenodd" d="M2.67593 0.019165C2.38017 0.019165 2.08936 0.0945525 1.83094 0.238113C1.5678 0.372252 1.34569 0.575009 1.18817 0.825043C1.02838 1.07867 0.941166 1.37125 0.936001 1.67097L0.935926 1.67958V12.3396L0.936001 12.3482C0.941166 12.6479 1.02838 12.9405 1.18817 13.1941C1.34569 13.4442 1.5678 13.6469 1.83094 13.7811C2.08936 13.9246 2.38017 14 2.67593 14C2.97588 14 3.27074 13.9225 3.53189 13.7749C3.53764 13.7717 3.54332 13.7683 3.54893 13.7648L12.1787 8.42735C12.4404 8.29546 12.6613 8.09453 12.8175 7.84605C12.9786 7.58946 13.0642 7.2926 13.0642 6.98958C13.0642 6.68657 12.9786 6.3897 12.8175 6.13312C12.6612 5.88438 12.4399 5.68328 12.1779 5.5514L3.54751 0.253465C3.54236 0.250305 3.53715 0.247238 3.53189 0.244266C3.27074 0.0967073 2.97588 0.019165 2.67593 0.019165Z" fill="black"/>
</g>
<defs>
<clipPath id="clip0_1222_1181">
<rect width="14" height="14" fill="white"/>
</clipPath>
</defs>
</svg>
